ply
format ascii 1.0
comment Feeney's Flatenator generated
comment TextureFile SpaceInteriors_Texture.png
element vertex 180
property float x
property float y
property float z
property float nx
property float ny
property float nz
property uchar red
property uchar green
property uchar blue
property uchar alpha
property float texture_u
property float texture_v
element face 60
property list uchar int vertex_indices
end_header
-0.34255 11.3102 0.342548 0 0 0.265888 185 151 34 255 0.235948 0.220855 
0.34255 11.3102 0.342548 0 0 0.265888 185 151 34 255 0.235948 0.220855 
0.34255 11.6983 0.342548 0 0 0.265888 185 151 34 255 0.235948 0.220855 
-0.34255 11.3102 0.342548 0 0 0.265888 185 151 34 255 0.235948 0.220855 
0.34255 11.6983 0.342548 0 0 0.265888 185 151 34 255 0.235948 0.220855 
-0.34255 11.6983 0.342548 0 0 0.265888 185 151 34 255 0.235948 0.220855 
-0.219338 11.8145 0.219337 -0 0.192437 0 211 177 41 255 0.301832 0.220855 
0.219338 11.8145 0.219337 -0 0.192437 0 211 177 41 255 0.301832 0.220855 
0.219338 11.8145 -0.219339 -0 0.192437 0 211 177 41 255 0.301832 0.220855 
-0.219338 11.8145 0.219337 0 0.192437 0 211 177 41 255 0.301832 0.220855 
0.219338 11.8145 -0.219339 0 0.192437 0 211 177 41 255 0.301832 0.220855 
-0.219338 11.8145 -0.219339 0 0.192437 0 211 177 41 255 0.301832 0.220855 
-0.34255 11.6983 -0.34255 0 0 -0.265888 185 151 34 255 0.235948 0.220855 
0.34255 11.6983 -0.34255 0 0 -0.265888 185 151 34 255 0.235948 0.220855 
0.34255 11.3102 -0.34255 0 0 -0.265888 185 151 34 255 0.235948 0.220855 
-0.34255 11.6983 -0.34255 0 0 -0.265888 185 151 34 255 0.235948 0.220855 
0.34255 11.3102 -0.34255 0 0 -0.265888 185 151 34 255 0.235948 0.220855 
-0.34255 11.3102 -0.34255 0 0 -0.265888 185 151 34 255 0.235948 0.220855 
-0.04201 0 -0.042009 0 -0.00705953 0 58 57 55 255 0.170929 0.062068 
0.04201 0 -0.042009 0 -0.00705953 0 58 57 55 255 0.170929 0.062068 
0.04201 0 0.042013 0 -0.00705953 0 58 57 55 255 0.170929 0.062068 
-0.04201 0 -0.042009 0 -0.00705953 0 58 57 55 255 0.170929 0.062068 
0.04201 0 0.042013 0 -0.00705953 0 58 57 55 255 0.170929 0.062068 
-0.04201 0 0.042013 0 -0.00705953 0 58 57 55 255 0.170929 0.062068 
0.34255 11.3102 0.342548 0.265887 0 0 170 138 30 255 0.20391 0.220855 
0.34255 11.3102 -0.34255 0.265887 0 0 170 138 30 255 0.20391 0.220855 
0.34255 11.6983 -0.34255 0.265887 0 0 170 138 30 255 0.20391 0.220855 
0.34255 11.3102 0.342548 0.265887 -0 0 170 138 30 255 0.20391 0.220855 
0.34255 11.6983 -0.34255 0.265887 -0 0 170 138 30 255 0.20391 0.220855 
0.34255 11.6983 0.342548 0.265887 -0 0 170 138 30 255 0.20391 0.220855 
-0.34255 11.3102 -0.34255 -0.265887 0 0 170 138 30 255 0.20391 0.220855 
-0.34255 11.3102 0.342548 -0.265887 0 0 170 138 30 255 0.20391 0.220855 
-0.34255 11.6983 0.342548 -0.265887 0 0 170 138 30 255 0.20391 0.220855 
-0.34255 11.3102 -0.34255 -0.265887 0 0 170 138 30 255 0.20391 0.220855 
-0.34255 11.6983 0.342548 -0.265887 0 0 170 138 30 255 0.20391 0.220855 
-0.34255 11.6983 -0.34255 -0.265887 0 0 170 138 30 255 0.20391 0.220855 
-0.089888 10.565 -0.089888 -0.133969 -0.0454226 0 155 122 27 255 0.171191 0.220855 
-0.089888 10.565 0.089888 -0.133969 -0.0454226 0 155 122 27 255 0.171191 0.220855 
-0.34255 11.3102 0.342548 -0.133969 -0.0454226 0 155 122 27 255 0.171191 0.220855 
-0.089888 10.565 -0.089888 -0.510535 -0.173098 0 155 122 27 255 0.171191 0.220855 
-0.34255 11.3102 0.342548 -0.510535 -0.173098 0 155 122 27 255 0.171191 0.220855 
-0.34255 11.3102 -0.34255 -0.510535 -0.173098 0 155 122 27 255 0.171191 0.220855 
-0.089888 10.565 0.089888 0 -0.0454222 0.133969 170 138 30 255 0.203229 0.220855 
0.089888 10.565 0.089888 0 -0.0454222 0.133969 170 138 30 255 0.203229 0.220855 
0.34255 11.3102 0.342548 0 -0.0454222 0.133969 170 138 30 255 0.203229 0.220855 
-0.089888 10.565 0.089888 0 -0.173097 0.510537 170 138 30 255 0.203229 0.220855 
0.34255 11.3102 0.342548 0 -0.173097 0.510537 170 138 30 255 0.203229 0.220855 
-0.34255 11.3102 0.342548 0 -0.173097 0.510537 170 138 30 255 0.203229 0.220855 
0.089888 10.565 0.089888 0.133969 -0.0454226 0 155 122 27 255 0.171191 0.220855 
0.089888 10.565 -0.089888 0.133969 -0.0454226 0 155 122 27 255 0.171191 0.220855 
0.34255 11.3102 -0.34255 0.133969 -0.0454226 0 155 122 27 255 0.171191 0.220855 
0.089888 10.565 0.089888 0.510535 -0.173098 0 155 122 27 255 0.171191 0.220855 
0.34255 11.3102 -0.34255 0.510535 -0.173098 0 155 122 27 255 0.171191 0.220855 
0.34255 11.3102 0.342548 0.510535 -0.173098 0 155 122 27 255 0.171191 0.220855 
-0.34255 11.3102 -0.34255 0 -0.173099 -0.510537 170 138 30 255 0.203229 0.220855 
0.34255 11.3102 -0.34255 0 -0.173099 -0.510537 170 138 30 255 0.203229 0.220855 
0.089888 10.565 -0.089888 0 -0.173099 -0.510537 170 138 30 255 0.203229 0.220855 
-0.34255 11.3102 -0.34255 0 -0.0454226 -0.133969 170 138 30 255 0.203229 0.220855 
0.089888 10.565 -0.089888 0 -0.0454226 -0.133969 170 138 30 255 0.203229 0.220855 
-0.089888 10.565 -0.089888 0 -0.0454226 -0.133969 170 138 30 255 0.203229 0.220855 
-0.089888 10.4183 -0.089888 -0.0263731 0 0 170 138 30 255 0.20391 0.220855 
-0.089888 10.4183 0.089888 -0.0263731 0 0 170 138 30 255 0.20391 0.220855 
-0.089888 10.565 0.089888 -0.0263731 0 0 170 138 30 255 0.20391 0.220855 
-0.089888 10.4183 -0.089888 -0.0263731 0 0 170 138 30 255 0.20391 0.220855 
-0.089888 10.565 0.089888 -0.0263731 0 0 170 138 30 255 0.20391 0.220855 
-0.089888 10.565 -0.089888 -0.0263731 0 0 170 138 30 255 0.20391 0.220855 
-0.089888 10.4183 0.089888 0 0 0.0263731 185 151 34 255 0.235948 0.220855 
0.089888 10.4183 0.089888 0 0 0.0263731 185 151 34 255 0.235948 0.220855 
0.089888 10.565 0.089888 0 0 0.0263731 185 151 34 255 0.235948 0.220855 
-0.089888 10.4183 0.089888 0 0 0.0263731 185 151 34 255 0.235948 0.220855 
0.089888 10.565 0.089888 0 0 0.0263731 185 151 34 255 0.235948 0.220855 
-0.089888 10.565 0.089888 0 0 0.0263731 185 151 34 255 0.235948 0.220855 
0.089888 10.4183 0.089888 0.0263731 0 0 170 138 30 255 0.20391 0.220855 
0.089888 10.4183 -0.089888 0.0263731 0 0 170 138 30 255 0.20391 0.220855 
0.089888 10.565 -0.089888 0.0263731 0 0 170 138 30 255 0.20391 0.220855 
0.089888 10.4183 0.089888 0.0263731 -0 0 170 138 30 255 0.20391 0.220855 
0.089888 10.565 -0.089888 0.0263731 -0 0 170 138 30 255 0.20391 0.220855 
0.089888 10.565 0.089888 0.0263731 -0 0 170 138 30 255 0.20391 0.220855 
-0.089888 10.565 -0.089888 0 0 -0.0263731 185 151 34 255 0.235948 0.220855 
0.089888 10.565 -0.089888 0 0 -0.0263731 185 151 34 255 0.235948 0.220855 
0.089888 10.4183 -0.089888 0 0 -0.0263731 185 151 34 255 0.235948 0.220855 
-0.089888 10.565 -0.089888 0 0 -0.0263731 185 151 34 255 0.235948 0.220855 
0.089888 10.4183 -0.089888 0 0 -0.0263731 185 151 34 255 0.235948 0.220855 
-0.089888 10.4183 -0.089888 0 0 -0.0263731 185 151 34 255 0.235948 0.220855 
-0.34255 11.6983 0.342548 -0 0.0844119 0.0796083 198 165 37 255 0.266967 0.220855 
0.34255 11.6983 0.342548 -0 0.0844119 0.0796083 198 165 37 255 0.266967 0.220855 
0.219338 11.8145 0.219337 -0 0.0844119 0.0796083 198 165 37 255 0.266967 0.220855 
-0.34255 11.6983 0.342548 0 0.0540497 0.0509739 198 165 37 255 0.266967 0.220855 
0.219338 11.8145 0.219337 0 0.0540497 0.0509739 198 165 37 255 0.266967 0.220855 
-0.219338 11.8145 0.219337 0 0.0540497 0.0509739 198 165 37 255 0.266967 0.220855 
-0.34255 11.6983 -0.34255 -0.079608 0.0844123 0 185 151 34 255 0.234928 0.220855 
-0.34255 11.6983 0.342548 -0.079608 0.0844123 0 185 151 34 255 0.234928 0.220855 
-0.219338 11.8145 0.219337 -0.079608 0.0844123 0 185 151 34 255 0.234928 0.220855 
-0.34255 11.6983 -0.34255 -0.0509739 0.0540502 0 185 151 34 255 0.234928 0.220855 
-0.219338 11.8145 0.219337 -0.0509739 0.0540502 0 185 151 34 255 0.234928 0.220855 
-0.219338 11.8145 -0.219339 -0.0509739 0.0540502 0 185 151 34 255 0.234928 0.220855 
-0.219338 11.8145 -0.219339 0 0.0540497 -0.0509739 198 165 37 255 0.266967 0.220855 
0.219338 11.8145 -0.219339 0 0.0540497 -0.0509739 198 165 37 255 0.266967 0.220855 
0.34255 11.6983 -0.34255 0 0.0540497 -0.0509739 198 165 37 255 0.266967 0.220855 
-0.219338 11.8145 -0.219339 0 0.0844119 -0.0796083 198 165 37 255 0.266967 0.220855 
0.34255 11.6983 -0.34255 0 0.0844119 -0.0796083 198 165 37 255 0.266967 0.220855 
-0.34255 11.6983 -0.34255 0 0.0844119 -0.0796083 198 165 37 255 0.266967 0.220855 
0.34255 11.6983 0.342548 0.079608 0.0844123 0 185 151 34 255 0.234928 0.220855 
0.34255 11.6983 -0.34255 0.079608 0.0844123 0 185 151 34 255 0.234928 0.220855 
0.219338 11.8145 -0.219339 0.079608 0.0844123 0 185 151 34 255 0.234928 0.220855 
0.34255 11.6983 0.342548 0.0509739 0.0540502 0 185 151 34 255 0.234928 0.220855 
0.219338 11.8145 -0.219339 0.0509739 0.0540502 0 185 151 34 255 0.234928 0.220855 
0.219338 11.8145 0.219337 0.0509739 0.0540502 0 185 151 34 255 0.234928 0.220855 
-0.089888 10.2954 -0.089888 -0.0220945 0 0 75 72 70 255 0.20391 0.062068 
-0.089888 10.2954 0.089888 -0.0220945 0 0 75 72 70 255 0.20391 0.062068 
-0.089888 10.4183 0.089888 -0.0220945 0 0 75 72 70 255 0.20391 0.062068 
-0.089888 10.2954 -0.089888 -0.0220945 0 0 75 72 70 255 0.20391 0.062068 
-0.089888 10.4183 0.089888 -0.0220945 0 0 75 72 70 255 0.20391 0.062068 
-0.089888 10.4183 -0.089888 -0.0220945 0 0 75 72 70 255 0.20391 0.062068 
-0.089888 10.2954 0.089888 0 0 0.0220945 91 88 86 255 0.235948 0.062068 
0.089888 10.2954 0.089888 0 0 0.0220945 91 88 86 255 0.235948 0.062068 
0.089888 10.4183 0.089888 0 0 0.0220945 91 88 86 255 0.235948 0.062068 
-0.089888 10.2954 0.089888 0 0 0.0220945 91 88 86 255 0.235948 0.062068 
0.089888 10.4183 0.089888 0 0 0.0220945 91 88 86 255 0.235948 0.062068 
-0.089888 10.4183 0.089888 0 0 0.0220945 91 88 86 255 0.235948 0.062068 
0.089888 10.2954 0.089888 0.0220945 0 0 75 72 70 255 0.20391 0.062068 
0.089888 10.2954 -0.089888 0.0220945 0 0 75 72 70 255 0.20391 0.062068 
0.089888 10.4183 -0.089888 0.0220945 0 0 75 72 70 255 0.20391 0.062068 
0.089888 10.2954 0.089888 0.0220945 -0 0 75 72 70 255 0.20391 0.062068 
0.089888 10.4183 -0.089888 0.0220945 -0 0 75 72 70 255 0.20391 0.062068 
0.089888 10.4183 0.089888 0.0220945 -0 0 75 72 70 255 0.20391 0.062068 
-0.089888 10.4183 -0.089888 0 0 -0.0220945 91 88 86 255 0.235948 0.062068 
0.089888 10.4183 -0.089888 0 0 -0.0220945 91 88 86 255 0.235948 0.062068 
0.089888 10.2954 -0.089888 0 0 -0.0220945 91 88 86 255 0.235948 0.062068 
-0.089888 10.4183 -0.089888 0 0 -0.0220945 91 88 86 255 0.235948 0.062068 
0.089888 10.2954 -0.089888 0 0 -0.0220945 91 88 86 255 0.235948 0.062068 
-0.089888 10.2954 -0.089888 0 0 -0.0220945 91 88 86 255 0.235948 0.062068 
-0.089888 10.2954 -0.089888 0 -0.00860749 0 58 57 55 255 0.170929 0.062068 
0.089888 10.2954 -0.089888 0 -0.00860749 0 58 57 55 255 0.170929 0.062068 
0.04201 10.2954 -0.042009 0 -0.00860749 0 58 57 55 255 0.170929 0.062068 
-0.089888 10.2954 -0.089888 0 -0.00402279 0 58 57 55 255 0.170929 0.062068 
0.04201 10.2954 -0.042009 0 -0.00402279 0 58 57 55 255 0.170929 0.062068 
-0.04201 10.2954 -0.042009 0 -0.00402279 0 58 57 55 255 0.170929 0.062068 
0.089888 10.2954 -0.089888 0 -0.00860731 0 58 57 55 255 0.170929 0.062068 
0.089888 10.2954 0.089888 0 -0.00860731 0 58 57 55 255 0.170929 0.062068 
0.04201 10.2954 0.042013 0 -0.00860731 0 58 57 55 255 0.170929 0.062068 
0.089888 10.2954 -0.089888 0 -0.00402281 0 58 57 55 255 0.170929 0.062068 
0.04201 10.2954 0.042013 0 -0.00402281 0 58 57 55 255 0.170929 0.062068 
0.04201 10.2954 -0.042009 0 -0.00402281 0 58 57 55 255 0.170929 0.062068 
0.089888 10.2954 0.089888 -0 -0.00860678 0 58 57 55 255 0.170929 0.062068 
-0.089888 10.2954 0.089888 -0 -0.00860678 0 58 57 55 255 0.170929 0.062068 
-0.04201 10.2954 0.042013 -0 -0.00860678 0 58 57 55 255 0.170929 0.062068 
0.089888 10.2954 0.089888 0 -0.00402246 0 58 57 55 255 0.170929 0.062068 
-0.04201 10.2954 0.042013 0 -0.00402246 0 58 57 55 255 0.170929 0.062068 
0.04201 10.2954 0.042013 0 -0.00402246 0 58 57 55 255 0.170929 0.062068 
-0.089888 10.2954 0.089888 0 -0.00860731 0 58 57 55 255 0.170929 0.062068 
-0.089888 10.2954 -0.089888 0 -0.00860731 0 58 57 55 255 0.170929 0.062068 
-0.04201 10.2954 -0.042009 0 -0.00860731 0 58 57 55 255 0.170929 0.062068 
-0.089888 10.2954 0.089888 0 -0.00402281 0 58 57 55 255 0.170929 0.062068 
-0.04201 10.2954 -0.042009 0 -0.00402281 0 58 57 55 255 0.170929 0.062068 
-0.04201 10.2954 0.042013 0 -0.00402281 0 58 57 55 255 0.170929 0.062068 
-0.04201 10.2954 -0.042009 0 0 -0.86502 75 72 70 255 0.20252 0.062068 
0.04201 10.2954 -0.042009 0 0 -0.86502 75 72 70 255 0.20252 0.062068 
0.04201 0 -0.042009 0 0 -0.86502 75 72 70 255 0.20252 0.062068 
-0.04201 10.2954 -0.042009 0 0 -0.86502 75 72 70 255 0.20252 0.062068 
0.04201 0 -0.042009 0 0 -0.86502 75 72 70 255 0.20252 0.062068 
-0.04201 0 -0.042009 0 0 -0.86502 75 72 70 255 0.20252 0.062068 
0.04201 10.2954 -0.042009 0.86504 0 -0 58 57 55 255 0.170929 0.062068 
0.04201 10.2954 0.042013 0.86504 0 -0 58 57 55 255 0.170929 0.062068 
0.04201 0 0.042013 0.86504 0 -0 58 57 55 255 0.170929 0.062068 
0.04201 10.2954 -0.042009 0.86504 0 0 58 57 55 255 0.170929 0.062068 
0.04201 0 0.042013 0.86504 0 0 58 57 55 255 0.170929 0.062068 
0.04201 0 -0.042009 0.86504 0 0 58 57 55 255 0.170929 0.062068 
0.04201 10.2954 0.042013 0 0 0.86502 75 72 70 255 0.20252 0.062068 
-0.04201 10.2954 0.042013 0 0 0.86502 75 72 70 255 0.20252 0.062068 
-0.04201 0 0.042013 0 0 0.86502 75 72 70 255 0.20252 0.062068 
0.04201 10.2954 0.042013 0 0 0.86502 75 72 70 255 0.20252 0.062068 
-0.04201 0 0.042013 0 0 0.86502 75 72 70 255 0.20252 0.062068 
0.04201 0 0.042013 0 0 0.86502 75 72 70 255 0.20252 0.062068 
-0.04201 10.2954 0.042013 -0.86504 0 -0 58 57 55 255 0.170929 0.062068 
-0.04201 10.2954 -0.042009 -0.86504 0 -0 58 57 55 255 0.170929 0.062068 
-0.04201 0 -0.042009 -0.86504 0 -0 58 57 55 255 0.170929 0.062068 
-0.04201 10.2954 0.042013 -0.86504 -0 0 58 57 55 255 0.170929 0.062068 
-0.04201 0 -0.042009 -0.86504 -0 0 58 57 55 255 0.170929 0.062068 
-0.04201 0 0.042013 -0.86504 -0 0 58 57 55 255 0.170929 0.062068 
3 0 1 2
3 3 4 5
3 6 7 8
3 9 10 11
3 12 13 14
3 15 16 17
3 18 19 20
3 21 22 23
3 24 25 26
3 27 28 29
3 30 31 32
3 33 34 35
3 36 37 38
3 39 40 41
3 42 43 44
3 45 46 47
3 48 49 50
3 51 52 53
3 54 55 56
3 57 58 59
3 60 61 62
3 63 64 65
3 66 67 68
3 69 70 71
3 72 73 74
3 75 76 77
3 78 79 80
3 81 82 83
3 84 85 86
3 87 88 89
3 90 91 92
3 93 94 95
3 96 97 98
3 99 100 101
3 102 103 104
3 105 106 107
3 108 109 110
3 111 112 113
3 114 115 116
3 117 118 119
3 120 121 122
3 123 124 125
3 126 127 128
3 129 130 131
3 132 133 134
3 135 136 137
3 138 139 140
3 141 142 143
3 144 145 146
3 147 148 149
3 150 151 152
3 153 154 155
3 156 157 158
3 159 160 161
3 162 163 164
3 165 166 167
3 168 169 170
3 171 172 173
3 174 175 176
3 177 178 179
