ply
format ascii 1.0
comment Feeney's Flatenator generated
comment TextureFile SpaceInteriors_Texture.png
element vertex 6
property float x
property float y
property float z
property float nx
property float ny
property float nz
property uchar red
property uchar green
property uchar blue
property uchar alpha
property float texture_u
property float texture_v
element face 2
property list uchar int vertex_indices
end_header
0 0 3.75 0 12.5 0 108 105 102 255 0.749635 0.672706 
0 0 1.25 0 12.5 0 108 105 102 255 0.749635 0.591709 
-5 0 1.25 0 12.5 0 108 105 102 255 0.587716 0.591709 
0 0 3.75 0 12.5 0 108 105 102 255 0.749635 0.672706 
-5 0 1.25 0 12.5 0 108 105 102 255 0.587716 0.591709 
-5 0 3.75 0 12.5 0 108 105 102 255 0.587716 0.672706 
3 0 1 2
3 3 4 5
