ply
format ascii 1.0
comment Feeney's Flatenator generated
comment TextureFile SpaceInteriors_Texture.png
element vertex 156
property float x
property float y
property float z
property float nx
property float ny
property float nz
property uchar red
property uchar green
property uchar blue
property uchar alpha
property float texture_u
property float texture_v
element face 52
property list uchar int vertex_indices
end_header
-0.172365 -4.33302 0.17234 0 0 1.49375 108 105 102 255 0.265187 0.061667 
0.172372 -4.33302 0.17234 0 0 1.49375 108 105 102 255 0.265187 0.061667 
0.172372 0 0.17234 0 0 1.49375 108 105 102 255 0.265187 0.061667 
-0.172365 -4.33302 0.17234 0 0 1.49375 108 105 102 255 0.265187 0.061667 
0.172372 0 0.17234 0 0 1.49375 108 105 102 255 0.265187 0.061667 
-0.172365 0 0.17234 0 0 1.49375 108 105 102 255 0.265187 0.061667 
-0.172365 0 0.17234 -0 0.118829 0 125 121 118 255 0.300052 0.061667 
0.172372 0 0.17234 -0 0.118829 0 125 121 118 255 0.300052 0.061667 
0.172372 0 -0.172356 -0 0.118829 0 125 121 118 255 0.300052 0.061667 
-0.172365 0 0.17234 0 0.118829 0 125 121 118 255 0.300052 0.061667 
0.172372 0 -0.172356 0 0.118829 0 125 121 118 255 0.300052 0.061667 
-0.172365 0 -0.172356 0 0.118829 0 125 121 118 255 0.300052 0.061667 
-0.172365 0 -0.172356 0 0 -1.49375 108 105 102 255 0.265187 0.061667 
0.172372 0 -0.172356 0 0 -1.49375 108 105 102 255 0.265187 0.061667 
0.172372 -4.33302 -0.172356 0 0 -1.49375 108 105 102 255 0.265187 0.061667 
-0.172365 0 -0.172356 0 0 -1.49375 108 105 102 255 0.265187 0.061667 
0.172372 -4.33302 -0.172356 0 0 -1.49375 108 105 102 255 0.265187 0.061667 
-0.172365 -4.33302 -0.172356 0 0 -1.49375 108 105 102 255 0.265187 0.061667 
-0.116819 -5.0733 -0.116821 0 -0.0545905 0 203 214 229 255 0.481388 0.085466 
0.116823 -5.0733 -0.116821 0 -0.0545905 0 203 214 229 255 0.481388 0.085466 
0.116823 -5.0733 0.116829 0 -0.0545905 0 203 214 229 255 0.481388 0.085466 
-0.116819 -5.0733 -0.116821 0 -0.0545905 0 203 214 229 255 0.481388 0.085466 
0.116823 -5.0733 0.116829 0 -0.0545905 0 203 214 229 255 0.481388 0.085466 
-0.116819 -5.0733 0.116829 0 -0.0545905 0 203 214 229 255 0.481388 0.085466 
0.172372 -4.33302 0.17234 1.49357 0 0 91 88 86 255 0.233148 0.061667 
0.172372 -4.33302 -0.172356 1.49357 0 0 91 88 86 255 0.233148 0.061667 
0.172372 0 -0.172356 1.49357 0 0 91 88 86 255 0.233148 0.061667 
0.172372 -4.33302 0.17234 1.49357 -0 0 91 88 86 255 0.233148 0.061667 
0.172372 0 -0.172356 1.49357 -0 0 91 88 86 255 0.233148 0.061667 
0.172372 0 0.17234 1.49357 -0 0 91 88 86 255 0.233148 0.061667 
-0.172365 -4.33302 -0.172356 -1.49357 0 0 91 88 86 255 0.233148 0.061667 
-0.172365 -4.33302 0.17234 -1.49357 0 0 91 88 86 255 0.233148 0.061667 
-0.172365 0 0.17234 -1.49357 0 0 91 88 86 255 0.233148 0.061667 
-0.172365 -4.33302 -0.172356 -1.49357 0 0 91 88 86 255 0.233148 0.061667 
-0.172365 0 0.17234 -1.49357 0 0 91 88 86 255 0.233148 0.061667 
-0.172365 0 -0.172356 -1.49357 0 0 91 88 86 255 0.233148 0.061667 
-1.1803 -5.01531 -1.1803 -1.61061 2.37933 0 153 162 173 255 0.361735 0.085466 
-1.1803 -5.01531 1.1803 -1.61061 2.37933 0 153 162 173 255 0.361735 0.085466 
-0.172365 -4.33302 0.17234 -1.61061 2.37933 0 153 162 173 255 0.361735 0.085466 
-1.1803 -5.01531 -1.1803 -0.235183 0.347431 0 153 162 173 255 0.361735 0.085466 
-0.172365 -4.33302 0.17234 -0.235183 0.347431 0 153 162 173 255 0.361735 0.085466 
-0.172365 -4.33302 -0.172356 -0.235183 0.347431 0 153 162 173 255 0.361735 0.085466 
-1.1803 -5.01531 1.1803 -0 2.37939 1.61061 168 177 190 255 0.393774 0.085466 
1.1803 -5.01531 1.1803 -0 2.37939 1.61061 168 177 190 255 0.393774 0.085466 
0.172372 -4.33302 0.17234 -0 2.37939 1.61061 168 177 190 255 0.393774 0.085466 
-1.1803 -5.01531 1.1803 0 0.347481 0.23521 168 177 190 255 0.393774 0.085466 
0.172372 -4.33302 0.17234 0 0.347481 0.23521 168 177 190 255 0.393774 0.085466 
-0.172365 -4.33302 0.17234 0 0.347481 0.23521 168 177 190 255 0.393774 0.085466 
1.1803 -5.01531 1.1803 1.61061 2.37931 0 153 162 173 255 0.361735 0.085466 
1.1803 -5.01531 -1.1803 1.61061 2.37931 0 153 162 173 255 0.361735 0.085466 
0.172372 -4.33302 -0.172356 1.61061 2.37931 0 153 162 173 255 0.361735 0.085466 
1.1803 -5.01531 1.1803 0.235183 0.347429 0 153 162 173 255 0.361735 0.085466 
0.172372 -4.33302 -0.172356 0.235183 0.347429 0 153 162 173 255 0.361735 0.085466 
0.172372 -4.33302 0.17234 0.235183 0.347429 0 153 162 173 255 0.361735 0.085466 
-0.172365 -4.33302 -0.172356 0 0.347476 -0.23521 168 177 190 255 0.393774 0.085466 
0.172372 -4.33302 -0.172356 0 0.347476 -0.23521 168 177 190 255 0.393774 0.085466 
1.1803 -5.01531 -1.1803 0 0.347476 -0.23521 168 177 190 255 0.393774 0.085466 
-0.172365 -4.33302 -0.172356 0 2.37935 -1.61061 168 177 190 255 0.393774 0.085466 
1.1803 -5.01531 -1.1803 0 2.37935 -1.61061 168 177 190 255 0.393774 0.085466 
-1.1803 -5.01531 -1.1803 0 2.37935 -1.61061 168 177 190 255 0.393774 0.085466 
-1.1803 -5.01531 -1.1803 0 0 -0.457154 153 162 173 255 0.360615 0.085466 
1.1803 -5.01531 -1.1803 0 0 -0.457154 153 162 173 255 0.360615 0.085466 
1.1803 -5.20897 -1.1803 0 0 -0.457154 153 162 173 255 0.360615 0.085466 
-1.1803 -5.01531 -1.1803 0 0 -0.457154 153 162 173 255 0.360615 0.085466 
1.1803 -5.20897 -1.1803 0 0 -0.457154 153 162 173 255 0.360615 0.085466 
-1.1803 -5.20897 -1.1803 0 0 -0.457154 153 162 173 255 0.360615 0.085466 
1.1803 -5.01531 -1.1803 0.457154 0 -0 138 145 155 255 0.328755 0.085466 
1.1803 -5.01531 1.1803 0.457154 0 -0 138 145 155 255 0.328755 0.085466 
1.1803 -5.20897 1.1803 0.457154 0 -0 138 145 155 255 0.328755 0.085466 
1.1803 -5.01531 -1.1803 0.457154 0 0 138 145 155 255 0.328755 0.085466 
1.1803 -5.20897 1.1803 0.457154 0 0 138 145 155 255 0.328755 0.085466 
1.1803 -5.20897 -1.1803 0.457154 0 0 138 145 155 255 0.328755 0.085466 
1.1803 -5.01531 1.1803 0 0 0.457154 153 162 173 255 0.360615 0.085466 
-1.1803 -5.01531 1.1803 0 0 0.457154 153 162 173 255 0.360615 0.085466 
-1.1803 -5.20897 1.1803 0 0 0.457154 153 162 173 255 0.360615 0.085466 
1.1803 -5.01531 1.1803 0 0 0.457154 153 162 173 255 0.360615 0.085466 
-1.1803 -5.20897 1.1803 0 0 0.457154 153 162 173 255 0.360615 0.085466 
1.1803 -5.20897 1.1803 0 0 0.457154 153 162 173 255 0.360615 0.085466 
-1.1803 -5.01531 1.1803 -0.457154 0 -0 138 145 155 255 0.328755 0.085466 
-1.1803 -5.01531 -1.1803 -0.457154 0 -0 138 145 155 255 0.328755 0.085466 
-1.1803 -5.20897 -1.1803 -0.457154 0 -0 138 145 155 255 0.328755 0.085466 
-1.1803 -5.01531 1.1803 -0.457154 -0 0 138 145 155 255 0.328755 0.085466 
-1.1803 -5.20897 -1.1803 -0.457154 -0 0 138 145 155 255 0.328755 0.085466 
-1.1803 -5.20897 1.1803 -0.457154 -0 0 138 145 155 255 0.328755 0.085466 
-1.1803 -5.20897 -1.1803 0 -0.528021 0 122 128 138 255 0.302033 0.085466 
1.1803 -5.20897 -1.1803 0 -0.528021 0 122 128 138 255 0.302033 0.085466 
0.956628 -5.20897 -0.956619 0 -0.528021 0 122 128 138 255 0.302033 0.085466 
-1.1803 -5.20897 -1.1803 0 -0.427958 0 122 128 138 255 0.302033 0.085466 
0.956628 -5.20897 -0.956619 0 -0.427958 0 122 128 138 255 0.302033 0.085466 
-0.956622 -5.20897 -0.956619 0 -0.427958 0 122 128 138 255 0.302033 0.085466 
1.1803 -5.20897 -1.1803 0 -0.528 0 122 128 138 255 0.302033 0.085466 
1.1803 -5.20897 1.1803 0 -0.528 0 122 128 138 255 0.302033 0.085466 
0.956628 -5.20897 0.956619 0 -0.528 0 122 128 138 255 0.302033 0.085466 
1.1803 -5.20897 -1.1803 0 -0.427938 0 122 128 138 255 0.302033 0.085466 
0.956628 -5.20897 0.956619 0 -0.427938 0 122 128 138 255 0.302033 0.085466 
0.956628 -5.20897 -0.956619 0 -0.427938 0 122 128 138 255 0.302033 0.085466 
1.1803 -5.20897 1.1803 -0 -0.528021 0 122 128 138 255 0.302033 0.085466 
-1.1803 -5.20897 1.1803 -0 -0.528021 0 122 128 138 255 0.302033 0.085466 
-0.956622 -5.20897 0.956619 -0 -0.528021 0 122 128 138 255 0.302033 0.085466 
1.1803 -5.20897 1.1803 0 -0.427958 0 122 128 138 255 0.302033 0.085466 
-0.956622 -5.20897 0.956619 0 -0.427958 0 122 128 138 255 0.302033 0.085466 
0.956628 -5.20897 0.956619 0 -0.427958 0 122 128 138 255 0.302033 0.085466 
-1.1803 -5.20897 1.1803 0 -0.528014 0 122 128 138 255 0.302033 0.085466 
-1.1803 -5.20897 -1.1803 0 -0.528014 0 122 128 138 255 0.302033 0.085466 
-0.956622 -5.20897 -0.956619 0 -0.528014 0 122 128 138 255 0.302033 0.085466 
-1.1803 -5.20897 1.1803 0 -0.427949 0 122 128 138 255 0.302033 0.085466 
-0.956622 -5.20897 -0.956619 0 -0.427949 0 122 128 138 255 0.302033 0.085466 
-0.956622 -5.20897 0.956619 0 -0.427949 0 122 128 138 255 0.302033 0.085466 
-0.956622 -5.20897 -0.956619 0 -1.60674 1.03549 181 191 205 255 0.423308 0.085466 
0.956628 -5.20897 -0.956619 0 -1.60674 1.03549 181 191 205 255 0.423308 0.085466 
0.116823 -4.66775 -0.116821 0 -1.60674 1.03549 181 191 205 255 0.423308 0.085466 
-0.956622 -5.20897 -0.956619 0 -0.196212 0.126452 181 191 205 255 0.423308 0.085466 
0.116823 -4.66775 -0.116821 0 -0.196212 0.126452 181 191 205 255 0.423308 0.085466 
-0.116819 -4.66775 -0.116821 0 -0.196212 0.126452 181 191 205 255 0.423308 0.085466 
0.956628 -5.20897 -0.956619 -1.03548 -1.60675 0 168 177 190 255 0.396586 0.085466 
0.956628 -5.20897 0.956619 -1.03548 -1.60675 0 168 177 190 255 0.396586 0.085466 
0.116823 -4.66775 0.116829 -1.03548 -1.60675 0 168 177 190 255 0.396586 0.085466 
0.956628 -5.20897 -0.956619 -0.126456 -0.19622 0 168 177 190 255 0.396586 0.085466 
0.116823 -4.66775 0.116829 -0.126456 -0.19622 0 168 177 190 255 0.396586 0.085466 
0.116823 -4.66775 -0.116821 -0.126456 -0.19622 0 168 177 190 255 0.396586 0.085466 
0.956628 -5.20897 0.956619 -0 -1.60673 -1.03549 181 191 205 255 0.423308 0.085466 
-0.956622 -5.20897 0.956619 -0 -1.60673 -1.03549 181 191 205 255 0.423308 0.085466 
-0.116819 -4.66775 0.116829 -0 -1.60673 -1.03549 181 191 205 255 0.423308 0.085466 
0.956628 -5.20897 0.956619 0 -0.19621 -0.126452 181 191 205 255 0.423308 0.085466 
-0.116819 -4.66775 0.116829 0 -0.19621 -0.126452 181 191 205 255 0.423308 0.085466 
0.116823 -4.66775 0.116829 0 -0.19621 -0.126452 181 191 205 255 0.423308 0.085466 
-0.956622 -5.20897 0.956619 1.03548 -1.60674 0 168 177 190 255 0.396586 0.085466 
-0.956622 -5.20897 -0.956619 1.03548 -1.60674 0 168 177 190 255 0.396586 0.085466 
-0.116819 -4.66775 -0.116821 1.03548 -1.60674 0 168 177 190 255 0.396586 0.085466 
-0.956622 -5.20897 0.956619 0.126456 -0.19622 0 168 177 190 255 0.396586 0.085466 
-0.116819 -4.66775 -0.116821 0.126456 -0.19622 0 168 177 190 255 0.396586 0.085466 
-0.116819 -4.66775 0.116829 0.126456 -0.19622 0 168 177 190 255 0.396586 0.085466 
-0.116819 -4.66775 -0.116821 0 0 -0.0947535 203 214 229 255 0.481388 0.085466 
0.116823 -4.66775 -0.116821 0 0 -0.0947535 203 214 229 255 0.481388 0.085466 
0.116823 -5.0733 -0.116821 0 0 -0.0947535 203 214 229 255 0.481388 0.085466 
-0.116819 -4.66775 -0.116821 0 0 -0.0947535 203 214 229 255 0.481388 0.085466 
0.116823 -5.0733 -0.116821 0 0 -0.0947535 203 214 229 255 0.481388 0.085466 
-0.116819 -5.0733 -0.116821 0 0 -0.0947535 203 214 229 255 0.481388 0.085466 
0.116823 -4.66775 -0.116821 0.0947568 0 -0 203 214 229 255 0.481388 0.085466 
0.116823 -4.66775 0.116829 0.0947568 0 -0 203 214 229 255 0.481388 0.085466 
0.116823 -5.0733 0.116829 0.0947568 0 -0 203 214 229 255 0.481388 0.085466 
0.116823 -4.66775 -0.116821 0.0947568 0 0 203 214 229 255 0.481388 0.085466 
0.116823 -5.0733 0.116829 0.0947568 0 0 203 214 229 255 0.481388 0.085466 
0.116823 -5.0733 -0.116821 0.0947568 0 0 203 214 229 255 0.481388 0.085466 
0.116823 -4.66775 0.116829 0 0 0.0947535 203 214 229 255 0.481388 0.085466 
-0.116819 -4.66775 0.116829 0 0 0.0947535 203 214 229 255 0.481388 0.085466 
-0.116819 -5.0733 0.116829 0 0 0.0947535 203 214 229 255 0.481388 0.085466 
0.116823 -4.66775 0.116829 0 0 0.0947535 203 214 229 255 0.481388 0.085466 
-0.116819 -5.0733 0.116829 0 0 0.0947535 203 214 229 255 0.481388 0.085466 
0.116823 -5.0733 0.116829 0 0 0.0947535 203 214 229 255 0.481388 0.085466 
-0.116819 -4.66775 0.116829 -0.0947568 0 -0 203 214 229 255 0.481388 0.085466 
-0.116819 -4.66775 -0.116821 -0.0947568 0 -0 203 214 229 255 0.481388 0.085466 
-0.116819 -5.0733 -0.116821 -0.0947568 0 -0 203 214 229 255 0.481388 0.085466 
-0.116819 -4.66775 0.116829 -0.0947568 -0 0 203 214 229 255 0.481388 0.085466 
-0.116819 -5.0733 -0.116821 -0.0947568 -0 0 203 214 229 255 0.481388 0.085466 
-0.116819 -5.0733 0.116829 -0.0947568 -0 0 203 214 229 255 0.481388 0.085466 
3 0 1 2
3 3 4 5
3 6 7 8
3 9 10 11
3 12 13 14
3 15 16 17
3 18 19 20
3 21 22 23
3 24 25 26
3 27 28 29
3 30 31 32
3 33 34 35
3 36 37 38
3 39 40 41
3 42 43 44
3 45 46 47
3 48 49 50
3 51 52 53
3 54 55 56
3 57 58 59
3 60 61 62
3 63 64 65
3 66 67 68
3 69 70 71
3 72 73 74
3 75 76 77
3 78 79 80
3 81 82 83
3 84 85 86
3 87 88 89
3 90 91 92
3 93 94 95
3 96 97 98
3 99 100 101
3 102 103 104
3 105 106 107
3 108 109 110
3 111 112 113
3 114 115 116
3 117 118 119
3 120 121 122
3 123 124 125
3 126 127 128
3 129 130 131
3 132 133 134
3 135 136 137
3 138 139 140
3 141 142 143
3 144 145 146
3 147 148 149
3 150 151 152
3 153 154 155
