ply
format ascii 1.0
comment Feeney's Flatenator generated
comment TextureFile SpaceInteriors_Texture.png
element vertex 114
property float x
property float y
property float z
property float nx
property float ny
property float nz
property uchar red
property uchar green
property uchar blue
property uchar alpha
property float texture_u
property float texture_v
element face 38
property list uchar int vertex_indices
end_header
9.73652 -0.21315 4.59234 -0 -1.90688 0 73 77 82 255 0.205638 0.088437 
9.65241 -0.21315 4.75648 -0 -1.90688 0 73 77 82 255 0.205638 0.088437 
0.263482 -0.21315 0.407661 -0 -1.90688 0 73 77 82 255 0.205638 0.088437 
9.73652 -0.21315 4.59234 0 -1.90692 0 73 77 82 255 0.205638 0.088437 
0.263482 -0.21315 0.407661 0 -1.90692 0 73 77 82 255 0.205638 0.088437 
0.347589 -0.21315 0.243515 0 -1.90692 0 73 77 82 255 0.205638 0.088437 
0.263482 -0.018883 0.407661 -0.844832 0 1.82396 57 60 64 255 0.1736 0.088437 
0.263482 -0.21315 0.407661 -0.844832 0 1.82396 57 60 64 255 0.1736 0.088437 
9.65241 -0.21315 4.75648 -0.844832 0 1.82396 57 60 64 255 0.1736 0.088437 
0.263482 -0.018883 0.407661 -0.844832 0 1.82396 57 60 64 255 0.1736 0.088437 
9.65241 -0.21315 4.75648 -0.844832 0 1.82396 57 60 64 255 0.1736 0.088437 
9.65241 -0.018883 4.75648 -0.844832 0 1.82396 57 60 64 255 0.1736 0.088437 
0.347589 -0.21315 0.243515 0.844833 0 -1.82396 57 60 64 255 0.1736 0.088437 
0.347589 -0.018883 0.243515 0.844833 0 -1.82396 57 60 64 255 0.1736 0.088437 
9.73652 -0.018883 4.59234 0.844833 0 -1.82396 57 60 64 255 0.1736 0.088437 
0.347589 -0.21315 0.243515 0.844833 0 -1.82396 57 60 64 255 0.1736 0.088437 
9.73652 -0.018883 4.59234 0.844833 0 -1.82396 57 60 64 255 0.1736 0.088437 
9.73652 -0.21315 4.59234 0.844833 0 -1.82396 57 60 64 255 0.1736 0.088437 
9.65241 -0.213158 0.243515 0 -1.90694 0 73 77 82 255 0.205638 0.088437 
9.73652 -0.213158 0.407661 0 -1.90694 0 73 77 82 255 0.205638 0.088437 
0.34759 -0.213158 4.75648 0 -1.90694 0 73 77 82 255 0.205638 0.088437 
9.65241 -0.213158 0.243515 0 -1.90687 0 73 77 82 255 0.205638 0.088437 
0.34759 -0.213158 4.75648 0 -1.90687 0 73 77 82 255 0.205638 0.088437 
0.263482 -0.213158 4.59234 0 -1.90687 0 73 77 82 255 0.205638 0.088437 
9.73652 -0.213158 0.407661 0.844836 -0 1.82397 57 60 64 255 0.1736 0.088437 
9.73652 -0.01889 0.407661 0.844836 -0 1.82397 57 60 64 255 0.1736 0.088437 
0.34759 -0.01889 4.75648 0.844836 -0 1.82397 57 60 64 255 0.1736 0.088437 
9.73652 -0.213158 0.407661 0.844836 0 1.82397 57 60 64 255 0.1736 0.088437 
0.34759 -0.01889 4.75648 0.844836 0 1.82397 57 60 64 255 0.1736 0.088437 
0.34759 -0.213158 4.75648 0.844836 0 1.82397 57 60 64 255 0.1736 0.088437 
9.65241 -0.01889 0.243515 -0.844837 -0 -1.82397 57 60 64 255 0.1736 0.088437 
9.65241 -0.213158 0.243515 -0.844837 -0 -1.82397 57 60 64 255 0.1736 0.088437 
0.263482 -0.213158 4.59234 -0.844837 -0 -1.82397 57 60 64 255 0.1736 0.088437 
9.65241 -0.01889 0.243515 -0.844837 0 -1.82397 57 60 64 255 0.1736 0.088437 
0.263482 -0.213158 4.59234 -0.844837 0 -1.82397 57 60 64 255 0.1736 0.088437 
0.263482 -0.01889 4.59234 -0.844837 0 -1.82397 57 60 64 255 0.1736 0.088437 
0 0 5 0 -50 0 85 89 94 255 0.502292 0.504362 
0 0 0 0 -50 0 85 89 94 255 0.502292 0.503018 
10 0 0 0 -50 0 85 89 94 255 0.751734 0.503018 
0 0 5 0 -50 0 85 89 94 255 0.502292 0.504362 
10 0 0 0 -50 0 85 89 94 255 0.751734 0.503018 
10 0 5 0 -50 0 85 89 94 255 0.751734 0.504362 
0 -0.321823 5 0 0 3.21823 89 93 100 255 0.240504 0.088437 
10 -0.321823 5 0 0 3.21823 89 93 100 255 0.240504 0.088437 
10 0 5 0 0 3.21823 89 93 100 255 0.240504 0.088437 
0 -0.321823 5 0 0 3.21823 89 93 100 255 0.240504 0.088437 
10 0 5 0 0 3.21823 89 93 100 255 0.240504 0.088437 
0 0 5 0 0 3.21823 89 93 100 255 0.240504 0.088437 
0 0 0 0 0 -3.21823 43 46 49 255 0.140619 0.088437 
10 0 0 0 0 -3.21823 43 46 49 255 0.140619 0.088437 
10 -0.321823 0 0 0 -3.21823 43 46 49 255 0.140619 0.088437 
0 0 0 0 0 -3.21823 43 46 49 255 0.140619 0.088437 
10 -0.321823 0 0 0 -3.21823 43 46 49 255 0.140619 0.088437 
0 -0.321823 0 0 0 -3.21823 43 46 49 255 0.140619 0.088437 
10 -0.321823 0 1.60912 0 0 57 60 64 255 0.1736 0.088437 
10 0 0 1.60912 0 0 57 60 64 255 0.1736 0.088437 
10 0 5 1.60912 0 0 57 60 64 255 0.1736 0.088437 
10 -0.321823 0 1.60912 0 0 57 60 64 255 0.1736 0.088437 
10 0 5 1.60912 0 0 57 60 64 255 0.1736 0.088437 
10 -0.321823 5 1.60912 0 0 57 60 64 255 0.1736 0.088437 
0 0 0 -1.60912 0 0 57 60 64 255 0.1736 0.088437 
0 -0.321823 0 -1.60912 0 0 57 60 64 255 0.1736 0.088437 
0 -0.321823 5 -1.60912 0 0 57 60 64 255 0.1736 0.088437 
0 0 0 -1.60912 0 0 57 60 64 255 0.1736 0.088437 
0 -0.321823 5 -1.60912 0 0 57 60 64 255 0.1736 0.088437 
0 0 5 -1.60912 0 0 57 60 64 255 0.1736 0.088437 
0 -0.321823 0 0 -3.25584 0 73 77 82 255 0.205638 0.088437 
10 -0.321823 0 0 -3.25584 0 73 77 82 255 0.205638 0.088437 
9.69446 -0.321823 0.325584 0 -3.25584 0 73 77 82 255 0.205638 0.088437 
0 -0.321823 0 0 -3.05688 0 73 77 82 255 0.205638 0.088437 
9.69446 -0.321823 0.325584 0 -3.05688 0 73 77 82 255 0.205638 0.088437 
0.305537 -0.321823 0.325584 0 -3.05688 0 73 77 82 255 0.205638 0.088437 
10 -0.321823 0 0 -1.5277 0 73 77 82 255 0.205638 0.088437 
10 -0.321823 5 0 -1.5277 0 73 77 82 255 0.205638 0.088437 
9.69446 -0.321823 4.67442 0 -1.5277 0 73 77 82 255 0.205638 0.088437 
10 -0.321823 0 0 -1.32874 0 73 77 82 255 0.205638 0.088437 
9.69446 -0.321823 4.67442 0 -1.32874 0 73 77 82 255 0.205638 0.088437 
9.69446 -0.321823 0.325584 0 -1.32874 0 73 77 82 255 0.205638 0.088437 
10 -0.321823 5 -0 -3.2558 0 73 77 82 255 0.205638 0.088437 
0 -0.321823 5 -0 -3.2558 0 73 77 82 255 0.205638 0.088437 
0.305537 -0.321823 4.67442 -0 -3.2558 0 73 77 82 255 0.205638 0.088437 
10 -0.321823 5 0 -3.05685 0 73 77 82 255 0.205638 0.088437 
0.305537 -0.321823 4.67442 0 -3.05685 0 73 77 82 255 0.205638 0.088437 
9.69446 -0.321823 4.67442 0 -3.05685 0 73 77 82 255 0.205638 0.088437 
0 -0.321823 5 0 -1.52768 0 73 77 82 255 0.205638 0.088437 
0 -0.321823 0 0 -1.52768 0 73 77 82 255 0.205638 0.088437 
0.305537 -0.321823 0.325584 0 -1.52768 0 73 77 82 255 0.205638 0.088437 
0 -0.321823 5 0 -1.32873 0 73 77 82 255 0.205638 0.088437 
0.305537 -0.321823 0.325584 0 -1.32873 0 73 77 82 255 0.205638 0.088437 
0.305537 -0.321823 4.67442 0 -1.32873 0 73 77 82 255 0.205638 0.088437 
0.305537 -0.321823 0.325584 0 0 3.02157 89 93 100 255 0.237214 0.088437 
9.69446 -0.321823 0.325584 0 0 3.02157 89 93 100 255 0.237214 0.088437 
9.69446 0 0.325584 0 0 3.02157 89 93 100 255 0.237214 0.088437 
0.305537 -0.321823 0.325584 0 0 3.02157 89 93 100 255 0.237214 0.088437 
9.69446 0 0.325584 0 0 3.02157 89 93 100 255 0.237214 0.088437 
0.305537 0 0.325584 0 0 3.02157 89 93 100 255 0.237214 0.088437 
9.69446 -0.321823 0.325584 -1.39956 0 0 57 60 64 255 0.17592 0.088437 
9.69446 -0.321823 4.67442 -1.39956 0 0 57 60 64 255 0.17592 0.088437 
9.69446 0 4.67442 -1.39956 0 0 57 60 64 255 0.17592 0.088437 
9.69446 -0.321823 0.325584 -1.39956 0 0 57 60 64 255 0.17592 0.088437 
9.69446 0 4.67442 -1.39956 0 0 57 60 64 255 0.17592 0.088437 
9.69446 0 0.325584 -1.39956 0 0 57 60 64 255 0.17592 0.088437 
9.69446 -0.321823 4.67442 0 0 -3.02157 73 77 82 255 0.205638 0.088437 
0.305537 -0.321823 4.67442 0 0 -3.02157 73 77 82 255 0.205638 0.088437 
0.305537 0 4.67442 0 0 -3.02157 73 77 82 255 0.205638 0.088437 
9.69446 -0.321823 4.67442 0 0 -3.02157 73 77 82 255 0.205638 0.088437 
0.305537 0 4.67442 0 0 -3.02157 73 77 82 255 0.205638 0.088437 
9.69446 0 4.67442 0 0 -3.02157 73 77 82 255 0.205638 0.088437 
0.305537 -0.321823 4.67442 1.39956 0 0 57 60 64 255 0.17592 0.088437 
0.305537 -0.321823 0.325584 1.39956 0 0 57 60 64 255 0.17592 0.088437 
0.305537 0 0.325584 1.39956 0 0 57 60 64 255 0.17592 0.088437 
0.305537 -0.321823 4.67442 1.39956 -0 0 57 60 64 255 0.17592 0.088437 
0.305537 0 0.325584 1.39956 -0 0 57 60 64 255 0.17592 0.088437 
0.305537 0 4.67442 1.39956 -0 0 57 60 64 255 0.17592 0.088437 
3 0 1 2
3 3 4 5
3 6 7 8
3 9 10 11
3 12 13 14
3 15 16 17
3 18 19 20
3 21 22 23
3 24 25 26
3 27 28 29
3 30 31 32
3 33 34 35
3 36 37 38
3 39 40 41
3 42 43 44
3 45 46 47
3 48 49 50
3 51 52 53
3 54 55 56
3 57 58 59
3 60 61 62
3 63 64 65
3 66 67 68
3 69 70 71
3 72 73 74
3 75 76 77
3 78 79 80
3 81 82 83
3 84 85 86
3 87 88 89
3 90 91 92
3 93 94 95
3 96 97 98
3 99 100 101
3 102 103 104
3 105 106 107
3 108 109 110
3 111 112 113
